<?xml version="1.0" standalone="no"?>
<!DOCTYPE svg PUBLIC "-//W3C//DTD SVG 20010904//EN"
 "http://www.w3.org/TR/2001/REC-SVG-20010904/DTD/svg10.dtd">
<svg version="1.0" xmlns="http://www.w3.org/2000/svg"
 width="600.000000pt" height="600.000000pt" viewBox="0 0 600.000000 600.000000"
 preserveAspectRatio="xMidYMid meet">
<metadata>
Created by potrace 1.14, written by Peter Selinger 2001-2017
</metadata>
<g transform="translate(0.000000,600.000000) scale(0.100000,-0.100000)"
fill="#000000" stroke="none">
<path d="M2858 5995 c-1 -1 -37 -5 -78 -9 -41 -3 -84 -8 -95 -10 -11 -2 -42
-7 -70 -10 -464 -65 -962 -275 -1350 -569 -44 -33 -82 -63 -85 -66 -3 -3 -27
-24 -55 -46 -82 -65 -294 -283 -383 -393 -71 -88 -215 -292 -261 -372 -102
-175 -195 -382 -267 -591 -44 -130 -108 -399 -120 -504 -3 -33 -8 -69 -10 -80
-17 -83 -23 -403 -11 -570 46 -627 303 -1245 721 -1730 97 -113 284 -294 396
-383 58 -46 113 -90 123 -98 9 -8 20 -14 23 -14 3 0 23 -13 44 -30 21 -16 42
-30 48 -30 6 0 12 -3 14 -7 6 -16 168 -107 313 -179 292 -143 561 -224 915
-278 185 -28 604 -29 815 -1 40 6 248 41 295 50 114 22 383 108 484 155 25 11
48 20 52 20 12 0 248 121 265 136 8 8 19 14 22 14 19 0 255 163 330 228 93 80
130 115 211 197 301 306 539 724 665 1170 17 61 34 121 37 135 22 103 54 277
59 321 3 30 8 68 10 84 23 184 24 634 1 765 -2 14 -8 52 -12 85 -4 33 -8 63
-10 68 -1 4 -2 16 -3 27 -1 20 -6 20 -1413 18 l-1413 -3 0 -560 0 -560 803 -2
c442 -1 806 -4 809 -7 16 -16 -88 -305 -146 -403 -63 -107 -78 -129 -135 -198
-207 -250 -497 -429 -830 -515 -61 -15 -131 -31 -156 -34 -25 -3 -58 -8 -75
-11 -77 -14 -375 -21 -435 -11 -14 3 -45 7 -70 10 -119 16 -351 76 -374 97 -6
5 -16 9 -24 9 -24 0 -245 114 -326 169 -279 189 -499 444 -640 743 -69 146
-135 348 -151 461 -3 27 -8 59 -11 70 -28 135 -20 405 17 588 113 563 475
1040 979 1290 139 69 342 138 450 153 8 1 42 6 75 10 33 4 71 10 85 12 62 10
310 4 403 -11 23 -4 56 -9 72 -11 45 -7 181 -43 249 -65 160 -54 401 -194 521
-303 28 -25 54 -46 59 -46 4 0 199 190 432 423 l423 424 -66 59 c-120 107
-317 253 -403 300 -19 10 -42 24 -50 31 -8 6 -71 40 -140 76 -250 129 -555
230 -820 272 -19 3 -42 8 -50 10 -8 2 -44 7 -80 10 -36 4 -74 9 -85 12 -22 5
-511 13 -517 8z"/>
</g>
</svg>
